<?xml version="1.0" encoding="UTF-8"?>
<svg width="200" height="400" viewBox="0 0 200 400" xmlns="http://www.w3.org/2000/svg">
    <!-- Car Body -->
    <linearGradient id="bodyGradient" x1="0%" y1="0%" x2="100%" y2="0%">
        <stop offset="0%" stop-color="#3498db" />
        <stop offset="100%" stop-color="#2980b9" />
    </linearGradient>
    <path d="M50,50 L150,50 Q170,100 170,150 L170,300 Q170,350 150,350 L50,350 Q30,350 30,300 L30,150 Q30,100 50,50 Z" fill="url(#bodyGradient)" />
    
    <!-- Windows -->
    <path d="M60,70 L140,70 Q150,100 150,130 L150,150 L50,150 L50,130 Q50,100 60,70 Z" fill="#a8e6ff" />
    <path d="M50,250 L150,250 L150,270 Q150,300 140,330 L60,330 Q50,300 50,270 Z" fill="#a8e6ff" />
    
    <!-- Roof -->
    <rect x="60" y="150" width="80" height="100" fill="#2980b9" />
    
    <!-- Wheels -->
    <circle cx="40" cy="120" r="15" fill="#333333" />
    <circle cx="40" cy="120" r="10" fill="#666666" />
    <circle cx="40" cy="120" r="3" fill="#333333" />
    
    <circle cx="160" cy="120" r="15" fill="#333333" />
    <circle cx="160" cy="120" r="10" fill="#666666" />
    <circle cx="160" cy="120" r="3" fill="#333333" />
    
    <circle cx="40" cy="280" r="15" fill="#333333" />
    <circle cx="40" cy="280" r="10" fill="#666666" />
    <circle cx="40" cy="280" r="3" fill="#333333" />
    
    <circle cx="160" cy="280" r="15" fill="#333333" />
    <circle cx="160" cy="280" r="10" fill="#666666" />
    <circle cx="160" cy="280" r="3" fill="#333333" />
    
    <!-- Details -->
    <rect x="60" y="150" width="80" height="2" fill="#1c638d" />
    <rect x="60" y="250" width="80" height="2" fill="#1c638d" />
    
    <!-- Headlights -->
    <circle cx="50" cy="60" r="5" fill="#f1c40f" />
    <circle cx="150" cy="60" r="5" fill="#f1c40f" />
    
    <!-- Taillights -->
    <circle cx="50" cy="340" r="5" fill="#ff0000" />
    <circle cx="150" cy="340" r="5" fill="#ff0000" />
    
    <!-- Interior Details -->
    <rect x="70" y="100" width="60" height="20" fill="#333333" /> <!-- Dashboard -->
    <rect x="90" y="120" width="20" height="20" fill="#444444" /> <!-- Center console -->
    <circle cx="100" cy="180" r="15" fill="#444444" /> <!-- Steering wheel -->
</svg>
