<?xml version="1.0" encoding="UTF-8"?>
<svg width="100" height="200" viewBox="0 0 100 200" xmlns="http://www.w3.org/2000/svg">
    <!-- Car Body -->
    <path d="M20,40 L80,40 Q90,60 90,80 L90,160 Q90,180 80,190 L20,190 Q10,180 10,160 L10,80 Q10,60 20,40" fill="#e74c3c"/>
    
    <!-- Hood -->
    <path d="M30,20 L70,20 Q75,30 75,40 L25,40 Q25,30 30,20" fill="#c0392b"/>
    
    <!-- Roof -->
    <path d="M25,40 L75,40 L75,70 L25,70 Z" fill="#c0392b"/>
    
    <!-- Windows -->
    <path d="M28,45 L72,45 L72,65 L28,65 Z" fill="#a8e6ff"/>
    
    <!-- Headlights -->
    <rect x="25" y="25" width="15" height="10" fill="#f1c40f"/>
    <rect x="60" y="25" width="15" height="10" fill="#f1c40f"/>
    
    <!-- Taillights -->
    <rect x="20" y="180" width="15" height="8" fill="#f39c12"/>
    <rect x="65" y="180" width="15" height="8" fill="#f39c12"/>
    
    <!-- Wheels -->
    <g id="left-wheels">
        <!-- Front Left -->
        <rect x="5" y="60" width="10" height="25" rx="2" fill="#2c3e50"/>
        <!-- Rear Left -->
        <rect x="5" y="140" width="10" height="25" rx="2" fill="#2c3e50"/>
    </g>
    <g id="right-wheels">
        <!-- Front Right -->
        <rect x="85" y="60" width="10" height="25" rx="2" fill="#2c3e50"/>
        <!-- Rear Right -->
        <rect x="85" y="140" width="10" height="25" rx="2" fill="#2c3e50"/>
    </g>
    
    <!-- Details -->
    <path d="M45,75 L55,75 L55,185 L45,185 Z" fill="#c0392b" opacity="0.5"/>
    <rect x="25" y="100" width="50" height="2" fill="#2c3e50"/>
    <rect x="25" y="120" width="50" height="2" fill="#2c3e50"/>
</svg>
