<?xml version="1.0" encoding="UTF-8"?>
<svg width="200" height="200" viewBox="0 0 200 200" xmlns="http://www.w3.org/2000/svg">
    <!-- Explosion -->
    <g id="explosion">
        <!-- Center burst -->
        <circle cx="100" cy="100" r="40" fill="#ff5500"/>
        <circle cx="100" cy="100" r="30" fill="#ff8800"/>
        <circle cx="100" cy="100" r="20" fill="#ffcc00"/>
        
        <!-- Rays -->
        <polygon points="100,60 110,20 90,20" fill="#ff5500"/>
        <polygon points="140,100 180,110 180,90" fill="#ff5500"/>
        <polygon points="100,140 110,180 90,180" fill="#ff5500"/>
        <polygon points="60,100 20,110 20,90" fill="#ff5500"/>
        
        <polygon points="130,70 170,30 150,50" fill="#ff8800"/>
        <polygon points="130,130 170,170 150,150" fill="#ff8800"/>
        <polygon points="70,130 30,170 50,150" fill="#ff8800"/>
        <polygon points="70,70 30,30 50,50" fill="#ff8800"/>
        
        <!-- Debris -->
        <circle cx="120" cy="60" r="8" fill="#ff8800"/>
        <circle cx="140" cy="120" r="6" fill="#ff5500"/>
        <circle cx="70" cy="130" r="7" fill="#ff8800"/>
        <circle cx="50" cy="80" r="5" fill="#ff5500"/>
        <circle cx="110" cy="150" r="9" fill="#ff8800"/>
        
        <!-- Smoke -->
        <circle cx="85" cy="75" r="15" fill="#aaaaaa" opacity="0.6"/>
        <circle cx="120" cy="85" r="12" fill="#888888" opacity="0.5"/>
        <circle cx="95" cy="120" r="18" fill="#aaaaaa" opacity="0.7"/>
        <circle cx="70" cy="100" r="10" fill="#888888" opacity="0.5"/>
    </g>
</svg>
